# xmcd CD database file
#
# Track frame offsets:
#	150
#	40082
#	70914
#	96796
#	119228
#	158535
#	205942
#	234149
#	259206
#	277663
#
# Disc length: 3853 seconds
#
# Revision: 0
# Processed by: cddbd v1.5.2PL0 Copyright (c) Steve Scherf et al.
# Submitted via: CDex 1.78
#
DISCID=810f0b0a
DTITLE=octurn - the tibetan monks of gyuto - tantric college cd2
DYEAR=2015
DGENRE=Jazz
TTITLE0=mahakala's drum thing
TTITLE1=sitting
TTITLE2=le grand noir
TTITLE3=the many paths
TTITLE4=kundun
TTITLE5=root of tantra
TTITLE6=main and echo
TTITLE7=yamantaka
TTITLE8=true
TTITLE9=abhaya mudra
EXTD=YEAR: 2015
EXTT0=
EXTT1=
EXTT2=
EXTT3=
EXTT4=
EXTT5=
EXTT6=
EXTT7=
EXTT8=
EXTT9=
PLAYORDER=
